<svg width="1921" height="441" viewBox="0 0 1921 441" fill="none" xmlns="http://www.w3.org/2000/svg">
<mask id="path-1-inside-1" fill="white">
<path d="M138.146 322.711C121.142 332.529 100.934 335.189 81.9689 330.107C63.0034 325.025 46.8334 312.618 37.0161 295.614C27.1988 278.61 24.5384 258.402 29.6202 239.437C34.702 220.471 47.1097 204.301 64.1138 194.484L85.1888 230.987C77.866 235.215 72.5226 242.178 70.3341 250.346C68.1456 258.514 69.2913 267.216 73.5192 274.539C77.747 281.862 84.7106 287.205 92.8782 289.393C101.046 291.582 109.748 290.436 117.071 286.208L138.146 322.711Z"/>
</mask>
<path d="M138.146 322.711C121.142 332.529 100.934 335.189 81.9689 330.107C63.0034 325.025 46.8334 312.618 37.0161 295.614C27.1988 278.61 24.5384 258.402 29.6202 239.437C34.702 220.471 47.1097 204.301 64.1138 194.484L85.1888 230.987C77.866 235.215 72.5226 242.178 70.3341 250.346C68.1456 258.514 69.2913 267.216 73.5192 274.539C77.747 281.862 84.7106 287.205 92.8782 289.393C101.046 291.582 109.748 290.436 117.071 286.208L138.146 322.711Z" stroke="white" stroke-opacity="0.15" stroke-width="2" mask="url(#path-1-inside-1)"/>
<mask id="path-2-inside-2" fill="white">
<path d="M369.146 185.244C352.142 195.061 331.934 197.721 312.969 192.639C294.003 187.558 277.833 175.15 268.016 158.146C258.199 141.142 255.538 120.934 260.62 101.969C265.702 83.0034 278.11 66.8334 295.114 57.0161L316.189 93.5192C308.866 97.747 303.523 104.711 301.334 112.878C299.146 121.046 300.291 129.748 304.519 137.071C308.747 144.394 315.711 149.737 323.878 151.926C332.046 154.114 340.748 152.968 348.071 148.741L369.146 185.244Z"/>
</mask>
<path d="M369.146 185.244C352.142 195.061 331.934 197.721 312.969 192.639C294.003 187.558 277.833 175.15 268.016 158.146C258.199 141.142 255.538 120.934 260.62 101.969C265.702 83.0034 278.11 66.8334 295.114 57.0161L316.189 93.5192C308.866 97.747 303.523 104.711 301.334 112.878C299.146 121.046 300.291 129.748 304.519 137.071C308.747 144.394 315.711 149.737 323.878 151.926C332.046 154.114 340.748 152.968 348.071 148.741L369.146 185.244Z" stroke="white" stroke-opacity="0.15" stroke-width="2" mask="url(#path-2-inside-2)"/>
<mask id="path-3-inside-3" fill="white">
<path d="M340.146 378.244C323.142 388.061 302.934 390.721 283.969 385.639C265.003 380.558 248.833 368.15 239.016 351.146C229.199 334.142 226.538 313.934 231.62 294.969C236.702 276.003 249.11 259.833 266.114 250.016L287.189 286.519C279.866 290.747 274.523 297.711 272.334 305.878C270.146 314.046 271.291 322.748 275.519 330.071C279.747 337.394 286.711 342.737 294.878 344.926C303.046 347.114 311.748 345.968 319.071 341.741L340.146 378.244Z"/>
</mask>
<path d="M340.146 378.244C323.142 388.061 302.934 390.721 283.969 385.639C265.003 380.558 248.833 368.15 239.016 351.146C229.199 334.142 226.538 313.934 231.62 294.969C236.702 276.003 249.11 259.833 266.114 250.016L287.189 286.519C279.866 290.747 274.523 297.711 272.334 305.878C270.146 314.046 271.291 322.748 275.519 330.071C279.747 337.394 286.711 342.737 294.878 344.926C303.046 347.114 311.748 345.968 319.071 341.741L340.146 378.244Z" stroke="white" stroke-opacity="0.15" stroke-width="2" mask="url(#path-3-inside-3)"/>
<mask id="path-4-inside-4" fill="white">
<path d="M1394.15 165.244C1377.14 175.061 1356.93 177.721 1337.97 172.639C1319 167.558 1302.83 155.15 1293.02 138.146C1283.2 121.142 1280.54 100.934 1285.62 81.9689C1290.7 63.0034 1303.11 46.8334 1320.11 37.0161L1341.19 73.5192C1333.87 77.747 1328.52 84.7106 1326.33 92.8782C1324.15 101.046 1325.29 109.748 1329.52 117.071C1333.75 124.394 1340.71 129.737 1348.88 131.926C1357.05 134.114 1365.75 132.968 1373.07 128.741L1394.15 165.244Z"/>
</mask>
<path d="M1394.15 165.244C1377.14 175.061 1356.93 177.721 1337.97 172.639C1319 167.558 1302.83 155.15 1293.02 138.146C1283.2 121.142 1280.54 100.934 1285.62 81.9689C1290.7 63.0034 1303.11 46.8334 1320.11 37.0161L1341.19 73.5192C1333.87 77.747 1328.52 84.7106 1326.33 92.8782C1324.15 101.046 1325.29 109.748 1329.52 117.071C1333.75 124.394 1340.71 129.737 1348.88 131.926C1357.05 134.114 1365.75 132.968 1373.07 128.741L1394.15 165.244Z" stroke="white" stroke-opacity="0.15" stroke-width="2" mask="url(#path-4-inside-4)"/>
<mask id="path-5-inside-5" fill="white">
<path d="M1611.15 403.244C1594.14 413.061 1573.93 415.721 1554.97 410.639C1536 405.558 1519.83 393.15 1510.02 376.146C1500.2 359.142 1497.54 338.934 1502.62 319.969C1507.7 301.003 1520.11 284.833 1537.11 275.016L1558.19 311.519C1550.87 315.747 1545.52 322.711 1543.33 330.878C1541.15 339.046 1542.29 347.748 1546.52 355.071C1550.75 362.394 1557.71 367.737 1565.88 369.926C1574.05 372.114 1582.75 370.968 1590.07 366.741L1611.15 403.244Z"/>
</mask>
<path d="M1611.15 403.244C1594.14 413.061 1573.93 415.721 1554.97 410.639C1536 405.558 1519.83 393.15 1510.02 376.146C1500.2 359.142 1497.54 338.934 1502.62 319.969C1507.7 301.003 1520.11 284.833 1537.11 275.016L1558.19 311.519C1550.87 315.747 1545.52 322.711 1543.33 330.878C1541.15 339.046 1542.29 347.748 1546.52 355.071C1550.75 362.394 1557.71 367.737 1565.88 369.926C1574.05 372.114 1582.75 370.968 1590.07 366.741L1611.15 403.244Z" stroke="white" stroke-opacity="0.15" stroke-width="2" mask="url(#path-5-inside-5)"/>
<mask id="path-6-inside-6" fill="white">
<path d="M1610.15 186.244C1593.14 196.061 1572.93 198.721 1553.97 193.639C1535 188.558 1518.83 176.15 1509.02 159.146C1499.2 142.142 1496.54 121.934 1501.62 102.969C1506.7 84.0034 1519.11 67.8334 1536.11 58.0161L1557.19 94.5192C1549.87 98.747 1544.52 105.711 1542.33 113.878C1540.15 122.046 1541.29 130.748 1545.52 138.071C1549.75 145.394 1556.71 150.737 1564.88 152.926C1573.05 155.114 1581.75 153.968 1589.07 149.741L1610.15 186.244Z"/>
</mask>
<path d="M1610.15 186.244C1593.14 196.061 1572.93 198.721 1553.97 193.639C1535 188.558 1518.83 176.15 1509.02 159.146C1499.2 142.142 1496.54 121.934 1501.62 102.969C1506.7 84.0034 1519.11 67.8334 1536.11 58.0161L1557.19 94.5192C1549.87 98.747 1544.52 105.711 1542.33 113.878C1540.15 122.046 1541.29 130.748 1545.52 138.071C1549.75 145.394 1556.71 150.737 1564.88 152.926C1573.05 155.114 1581.75 153.968 1589.07 149.741L1610.15 186.244Z" stroke="white" stroke-opacity="0.15" stroke-width="2" mask="url(#path-6-inside-6)"/>
<mask id="path-7-inside-7" fill="white">
<path d="M1841.15 303.244C1824.14 313.061 1803.93 315.721 1784.97 310.639C1766 305.558 1749.83 293.15 1740.02 276.146C1730.2 259.142 1727.54 238.934 1732.62 219.969C1737.7 201.003 1750.11 184.833 1767.11 175.016L1788.19 211.519C1780.87 215.747 1775.52 222.711 1773.33 230.878C1771.15 239.046 1772.29 247.748 1776.52 255.071C1780.75 262.394 1787.71 267.737 1795.88 269.926C1804.05 272.114 1812.75 270.968 1820.07 266.741L1841.15 303.244Z"/>
</mask>
<path d="M1841.15 303.244C1824.14 313.061 1803.93 315.721 1784.97 310.639C1766 305.558 1749.83 293.15 1740.02 276.146C1730.2 259.142 1727.54 238.934 1732.62 219.969C1737.7 201.003 1750.11 184.833 1767.11 175.016L1788.19 211.519C1780.87 215.747 1775.52 222.711 1773.33 230.878C1771.15 239.046 1772.29 247.748 1776.52 255.071C1780.75 262.394 1787.71 267.737 1795.88 269.926C1804.05 272.114 1812.75 270.968 1820.07 266.741L1841.15 303.244Z" stroke="white" stroke-opacity="0.15" stroke-width="2" mask="url(#path-7-inside-7)"/>
<mask id="path-8-inside-8" fill="white">
<path d="M79.1138 195.016C96.1178 185.199 116.325 182.538 135.291 187.62C154.256 192.702 170.426 205.11 180.244 222.114C190.061 239.118 192.721 259.325 187.639 278.291C182.558 297.256 170.15 313.426 153.146 323.244L132.071 286.741C139.394 282.513 144.737 275.549 146.926 267.382C149.114 259.214 147.968 250.512 143.741 243.189C139.513 235.866 132.549 230.523 124.382 228.334C116.214 226.146 107.512 227.291 100.189 231.519L79.1138 195.016Z"/>
</mask>
<path d="M79.1138 195.016C96.1178 185.199 116.325 182.538 135.291 187.62C154.256 192.702 170.426 205.11 180.244 222.114C190.061 239.118 192.721 259.325 187.639 278.291C182.558 297.256 170.15 313.426 153.146 323.244L132.071 286.741C139.394 282.513 144.737 275.549 146.926 267.382C149.114 259.214 147.968 250.512 143.741 243.189C139.513 235.866 132.549 230.523 124.382 228.334C116.214 226.146 107.512 227.291 100.189 231.519L79.1138 195.016Z" stroke="white" stroke-opacity="0.04" stroke-width="2" mask="url(#path-8-inside-8)"/>
<mask id="path-9-inside-9" fill="white">
<path d="M310.114 57.5483C327.118 47.731 347.325 45.0707 366.291 50.1525C385.256 55.2343 401.426 67.6419 411.244 84.646C421.061 101.65 423.721 121.857 418.639 140.823C413.558 159.789 401.15 175.959 384.146 185.776L363.071 149.273C370.394 145.045 375.737 138.081 377.926 129.914C380.114 121.746 378.968 113.044 374.741 105.721C370.513 98.3982 363.549 93.0548 355.382 90.8663C347.214 88.6778 338.512 89.8235 331.189 94.0514L310.114 57.5483Z"/>
</mask>
<path d="M310.114 57.5483C327.118 47.731 347.325 45.0707 366.291 50.1525C385.256 55.2343 401.426 67.6419 411.244 84.646C421.061 101.65 423.721 121.857 418.639 140.823C413.558 159.789 401.15 175.959 384.146 185.776L363.071 149.273C370.394 145.045 375.737 138.081 377.926 129.914C380.114 121.746 378.968 113.044 374.741 105.721C370.513 98.3982 363.549 93.0548 355.382 90.8663C347.214 88.6778 338.512 89.8235 331.189 94.0514L310.114 57.5483Z" stroke="white" stroke-opacity="0.04" stroke-width="2" mask="url(#path-9-inside-9)"/>
<mask id="path-10-inside-10" fill="white">
<path d="M281.114 250.548C298.118 240.731 318.325 238.071 337.291 243.152C356.256 248.234 372.426 260.642 382.244 277.646C392.061 294.65 394.721 314.857 389.639 333.823C384.558 352.789 372.15 368.959 355.146 378.776L334.071 342.273C341.394 338.045 346.737 331.081 348.926 322.914C351.114 314.746 349.968 306.044 345.741 298.721C341.513 291.398 334.549 286.055 326.382 283.866C318.214 281.678 309.512 282.824 302.189 287.051L281.114 250.548Z"/>
</mask>
<path d="M281.114 250.548C298.118 240.731 318.325 238.071 337.291 243.152C356.256 248.234 372.426 260.642 382.244 277.646C392.061 294.65 394.721 314.857 389.639 333.823C384.558 352.789 372.15 368.959 355.146 378.776L334.071 342.273C341.394 338.045 346.737 331.081 348.926 322.914C351.114 314.746 349.968 306.044 345.741 298.721C341.513 291.398 334.549 286.055 326.382 283.866C318.214 281.678 309.512 282.824 302.189 287.051L281.114 250.548Z" stroke="white" stroke-opacity="0.04" stroke-width="2" mask="url(#path-10-inside-10)"/>
<mask id="path-11-inside-11" fill="white">
<path d="M1335.11 37.5483C1352.12 27.731 1372.33 25.0707 1391.29 30.1525C1410.26 35.2343 1426.43 47.6419 1436.24 64.646C1446.06 81.65 1448.72 101.857 1443.64 120.823C1438.56 139.789 1426.15 155.959 1409.15 165.776L1388.07 129.273C1395.39 125.045 1400.74 118.081 1402.93 109.914C1405.11 101.746 1403.97 93.0438 1399.74 85.721C1395.51 78.3982 1388.55 73.0548 1380.38 70.8663C1372.21 68.6778 1363.51 69.8235 1356.19 74.0514L1335.11 37.5483Z"/>
</mask>
<path d="M1335.11 37.5483C1352.12 27.731 1372.33 25.0707 1391.29 30.1525C1410.26 35.2343 1426.43 47.6419 1436.24 64.646C1446.06 81.65 1448.72 101.857 1443.64 120.823C1438.56 139.789 1426.15 155.959 1409.15 165.776L1388.07 129.273C1395.39 125.045 1400.74 118.081 1402.93 109.914C1405.11 101.746 1403.97 93.0438 1399.74 85.721C1395.51 78.3982 1388.55 73.0548 1380.38 70.8663C1372.21 68.6778 1363.51 69.8235 1356.19 74.0514L1335.11 37.5483Z" stroke="white" stroke-opacity="0.04" stroke-width="2" mask="url(#path-11-inside-11)"/>
<mask id="path-12-inside-12" fill="white">
<path d="M1552.11 275.548C1569.12 265.731 1589.33 263.071 1608.29 268.152C1627.26 273.234 1643.43 285.642 1653.24 302.646C1663.06 319.65 1665.72 339.857 1660.64 358.823C1655.56 377.789 1643.15 393.959 1626.15 403.776L1605.07 367.273C1612.39 363.045 1617.74 356.081 1619.93 347.914C1622.11 339.746 1620.97 331.044 1616.74 323.721C1612.51 316.398 1605.55 311.055 1597.38 308.866C1589.21 306.678 1580.51 307.824 1573.19 312.051L1552.11 275.548Z"/>
</mask>
<path d="M1552.11 275.548C1569.12 265.731 1589.33 263.071 1608.29 268.152C1627.26 273.234 1643.43 285.642 1653.24 302.646C1663.06 319.65 1665.72 339.857 1660.64 358.823C1655.56 377.789 1643.15 393.959 1626.15 403.776L1605.07 367.273C1612.39 363.045 1617.74 356.081 1619.93 347.914C1622.11 339.746 1620.97 331.044 1616.74 323.721C1612.51 316.398 1605.55 311.055 1597.38 308.866C1589.21 306.678 1580.51 307.824 1573.19 312.051L1552.11 275.548Z" stroke="white" stroke-opacity="0.04" stroke-width="2" mask="url(#path-12-inside-12)"/>
<mask id="path-13-inside-13" fill="white">
<path d="M1551.11 58.5483C1568.12 48.731 1588.33 46.0707 1607.29 51.1525C1626.26 56.2343 1642.43 68.6419 1652.24 85.646C1662.06 102.65 1664.72 122.857 1659.64 141.823C1654.56 160.789 1642.15 176.959 1625.15 186.776L1604.07 150.273C1611.39 146.045 1616.74 139.081 1618.93 130.914C1621.11 122.746 1619.97 114.044 1615.74 106.721C1611.51 99.3982 1604.55 94.0548 1596.38 91.8663C1588.21 89.6778 1579.51 90.8235 1572.19 95.0514L1551.11 58.5483Z"/>
</mask>
<path d="M1551.11 58.5483C1568.12 48.731 1588.33 46.0707 1607.29 51.1525C1626.26 56.2343 1642.43 68.6419 1652.24 85.646C1662.06 102.65 1664.72 122.857 1659.64 141.823C1654.56 160.789 1642.15 176.959 1625.15 186.776L1604.07 150.273C1611.39 146.045 1616.74 139.081 1618.93 130.914C1621.11 122.746 1619.97 114.044 1615.74 106.721C1611.51 99.3982 1604.55 94.0548 1596.38 91.8663C1588.21 89.6778 1579.51 90.8235 1572.19 95.0514L1551.11 58.5483Z" stroke="white" stroke-opacity="0.04" stroke-width="2" mask="url(#path-13-inside-13)"/>
<mask id="path-14-inside-14" fill="white">
<path d="M1782.11 175.548C1799.12 165.731 1819.33 163.071 1838.29 168.152C1857.26 173.234 1873.43 185.642 1883.24 202.646C1893.06 219.65 1895.72 239.857 1890.64 258.823C1885.56 277.789 1873.15 293.959 1856.15 303.776L1835.07 267.273C1842.39 263.045 1847.74 256.081 1849.93 247.914C1852.11 239.746 1850.97 231.044 1846.74 223.721C1842.51 216.398 1835.55 211.055 1827.38 208.866C1819.21 206.678 1810.51 207.824 1803.19 212.051L1782.11 175.548Z"/>
</mask>
<path d="M1782.11 175.548C1799.12 165.731 1819.33 163.071 1838.29 168.152C1857.26 173.234 1873.43 185.642 1883.24 202.646C1893.06 219.65 1895.72 239.857 1890.64 258.823C1885.56 277.789 1873.15 293.959 1856.15 303.776L1835.07 267.273C1842.39 263.045 1847.74 256.081 1849.93 247.914C1852.11 239.746 1850.97 231.044 1846.74 223.721C1842.51 216.398 1835.55 211.055 1827.38 208.866C1819.21 206.678 1810.51 207.824 1803.19 212.051L1782.11 175.548Z" stroke="white" stroke-opacity="0.04" stroke-width="2" mask="url(#path-14-inside-14)"/>
</svg>
